<svg xmlns="http://www.w3.org/2000/svg" viewBox="0 0 52 54"><defs><style>.cls-1,.cls-2,.cls-3{fill:none;stroke:#1c1c1c;stroke-width:2px;}.cls-1,.cls-3{stroke-miterlimit:10;}.cls-2,.cls-3{stroke-linecap:round;}.cls-2{stroke-linejoin:round;}</style></defs><g id="Layer_2" data-name="Layer 2"><g id="Icon_and_text" data-name="Icon and text"><line class="cls-1" x1="6" y1="20" x2="51" y2="20"/><path class="cls-2" d="M24,47s13-6,13-15c0-8-11-8-11,0,0-8-11-8-11,0,0,7,8,11,8,11"/><path class="cls-3" d="M17,15h0a3,3,0,0,1-3-3V4a3,3,0,0,1,3-3h0a3,3,0,0,1,3,3v8A3,3,0,0,1,17,15Z"/><path class="cls-3" d="M36,15h0a3,3,0,0,1-3-3V4a3,3,0,0,1,3-3h0a3,3,0,0,1,3,3v8A3,3,0,0,1,36,15Z"/><line class="cls-1" x1="33" y1="6" x2="25" y2="6"/><path class="cls-3" d="M14,6H11A10,10,0,0,0,1,16V43A10,10,0,0,0,11,53H41A10,10,0,0,0,51,43V16A10,10,0,0,0,41,6H39"/></g></g></svg>