<svg xmlns="http://www.w3.org/2000/svg" viewBox="0 0 54 54"><defs><style>.cls-1,.cls-2,.cls-3{fill:none;stroke:#1c1c1c;stroke-width:2px;}.cls-1,.cls-3{stroke-linecap:round;}.cls-1{stroke-linejoin:round;}.cls-2,.cls-3{stroke-miterlimit:10;}</style></defs><g id="Layer_2" data-name="Layer 2"><g id="Icon_and_text" data-name="Icon and text"><path class="cls-1" d="M27,42.3c0-1.65-1.09-3.3-2.73-3.3S21,40,21,42.85c0,4.4,6,7.15,6,7.15"/><path class="cls-1" d="M27,42.3c0-1.65,1.09-3.3,2.73-3.3S33,40,33,42.85c0,4.4-6,7.15-6,7.15"/><circle class="cls-2" cx="27" cy="14" r="9"/><path class="cls-3" d="M28.52,9.24a5,5,0,1,1-6.28,3.24"/><polyline class="cls-1" points="50 27 53 33 53 43 45 43"/><path class="cls-1" d="M11,27H50V5a4,4,0,0,0-4-4H8A4,4,0,0,0,4,5V27L1,33V43H8.91"/><line class="cls-3" x1="11" y1="21" x2="11" y2="21"/><polyline class="cls-1" points="40 7 46 7 46 11 40 11"/><line class="cls-1" x1="7" y1="36" x2="47" y2="36"/><polyline class="cls-1" points="45 36 45 53 9 53 9 36"/></g></g></svg>