<svg xmlns="http://www.w3.org/2000/svg" viewBox="0 0 49 63"><defs><style>.cls-1,.cls-2{fill:none;stroke:#1c1c1c;stroke-linejoin:round;stroke-width:2px;}.cls-1{stroke-linecap:round;}</style></defs><g id="Layer_2" data-name="Layer 2"><g id="Icon_and_text" data-name="Icon and text"><path class="cls-1" d="M16,6.57C16,9.14,14.33,14,11,14S6,9.14,6,6.57A5.2,5.2,0,0,1,11,1,5.2,5.2,0,0,1,16,6.57Z"/><path class="cls-1" d="M6,7s4,0,6-2a3.53,3.53,0,0,0,4,1"/><path class="cls-1" d="M32,12s4,0,6-2a3.53,3.53,0,0,0,4,1"/><path class="cls-1" d="M11,29l5-12h1a4,4,0,0,1,4,4V35.67a4,4,0,0,1-.8,2.4L18,41,16,62H11"/><path class="cls-1" d="M11,62H6L4,41,1.8,38.07a4,4,0,0,1-.8-2.4V21a4,4,0,0,1,4-4H6l5,12"/><polyline class="cls-2" points="8 23 11 20 14 23"/><polyline class="cls-1" points="16 17 11 18 6 17"/><line class="cls-1" x1="11" y1="32" x2="11" y2="32"/><line class="cls-1" x1="11" y1="36" x2="11" y2="36"/><line class="cls-1" x1="11" y1="40" x2="11" y2="40"/><path class="cls-1" d="M38.81,6.38a4.5,4.5,0,0,0-3.62,0"/><path class="cls-1" d="M35.19,6.38A5.33,5.33,0,0,0,32,11.57C32,14.14,33.67,19,37,19s5-4.86,5-7.43a5.33,5.33,0,0,0-3.19-5.19"/><path class="cls-1" d="M38.81,6.38a3,3,0,1,0-3.62,0"/><path class="cls-1" d="M26,60c1-3,1-7,1-13a12.25,12.25,0,0,1,6-11,28,28,0,0,1-1.82-3.77A15.12,15.12,0,0,1,30,27c0-2,1-5,4-5,1,0,3,3,3,3"/><path class="cls-1" d="M48,60c-1-3-1-7-1-13a12.25,12.25,0,0,0-6-11,28,28,0,0,0,1.82-3.77A15.12,15.12,0,0,0,44,27c0-2-1-5-4-5-1,0-3,3-3,3"/><path class="cls-1" d="M33.67,51c0,1.1-1.5,2-3.34,2S27,52.1,27,51"/><path class="cls-1" d="M40.33,51c0,1.1-1.49,2-3.33,2s-3.33-.9-3.33-2"/><path class="cls-1" d="M47,51c0,1.1-1.49,2-3.33,2s-3.34-.9-3.34-2"/><path class="cls-1" d="M33.33,60c0,1.1-1.64,2-3.66,2S26,61.1,26,60"/><path class="cls-1" d="M40.67,60c0,1.1-1.64,2-3.67,2s-3.67-.9-3.67-2"/><path class="cls-1" d="M48,60c0,1.1-1.64,2-3.67,2s-3.66-.9-3.66-2"/></g></g></svg>